<mxfile host="app.diagrams.net" modified="2023-06-06T14:13:39.625Z" agent="Mozilla/5.0 (Windows NT 10.0; Win64; x64) AppleWebKit/537.36 (KHTML, like Gecko) Chrome/114.0.0.0 Safari/537.36" etag="RRoBOL_1dq80sd0zu7kU" version="21.3.7" type="github">
  <diagram name="Page-1" id="b8wsuv6AWZSDKlaKOWDy">
    <mxGraphModel dx="1434" dy="764" grid="1" gridSize="10" guides="1" tooltips="1" connect="1" arrows="1" fold="1" page="1" pageScale="1" pageWidth="850" pageHeight="1100" math="0" shadow="0">
      <root>
        <mxCell id="0" />
        <mxCell id="1" parent="0" />
        <mxCell id="7sOv3XN9z1zp_vqDKxNH-5" style="edgeStyle=orthogonalEdgeStyle;rounded=0;orthogonalLoop=1;jettySize=auto;html=1;exitX=0.25;exitY=1;exitDx=0;exitDy=0;strokeWidth=4;fillColor=#d5e8d4;strokeColor=#82b366;" edge="1" parent="1" source="7sOv3XN9z1zp_vqDKxNH-1" target="7sOv3XN9z1zp_vqDKxNH-2">
          <mxGeometry relative="1" as="geometry" />
        </mxCell>
        <mxCell id="7sOv3XN9z1zp_vqDKxNH-6" style="edgeStyle=orthogonalEdgeStyle;rounded=0;orthogonalLoop=1;jettySize=auto;html=1;exitX=0.5;exitY=1;exitDx=0;exitDy=0;entryX=0.5;entryY=0;entryDx=0;entryDy=0;strokeWidth=4;fillColor=#d5e8d4;strokeColor=#82b366;" edge="1" parent="1" source="7sOv3XN9z1zp_vqDKxNH-1" target="7sOv3XN9z1zp_vqDKxNH-3">
          <mxGeometry relative="1" as="geometry" />
        </mxCell>
        <mxCell id="7sOv3XN9z1zp_vqDKxNH-7" style="edgeStyle=orthogonalEdgeStyle;rounded=0;orthogonalLoop=1;jettySize=auto;html=1;exitX=0.75;exitY=1;exitDx=0;exitDy=0;fillColor=#d5e8d4;strokeColor=#82b366;strokeWidth=4;" edge="1" parent="1" source="7sOv3XN9z1zp_vqDKxNH-1" target="7sOv3XN9z1zp_vqDKxNH-4">
          <mxGeometry relative="1" as="geometry" />
        </mxCell>
        <mxCell id="7sOv3XN9z1zp_vqDKxNH-1" value="PPDM Chart" style="rounded=0;whiteSpace=wrap;html=1;dashed=1;fillColor=none;strokeColor=#82b366;strokeWidth=2;" vertex="1" parent="1">
          <mxGeometry x="200" y="120" width="360" height="60" as="geometry" />
        </mxCell>
        <mxCell id="7sOv3XN9z1zp_vqDKxNH-2" value="data-manager-core&lt;br&gt;Chart" style="rounded=0;whiteSpace=wrap;html=1;dashed=1;fillColor=none;strokeColor=#82b366;strokeWidth=2;" vertex="1" parent="1">
          <mxGeometry x="200" y="240" width="100" height="80" as="geometry" />
        </mxCell>
        <mxCell id="7sOv3XN9z1zp_vqDKxNH-3" value="policy-service&lt;br&gt;Chart" style="rounded=0;whiteSpace=wrap;html=1;dashed=1;fillColor=none;strokeColor=#82b366;strokeWidth=2;" vertex="1" parent="1">
          <mxGeometry x="330" y="240" width="100" height="80" as="geometry" />
        </mxCell>
        <mxCell id="7sOv3XN9z1zp_vqDKxNH-4" value="..." style="rounded=0;whiteSpace=wrap;html=1;dashed=1;fillColor=none;strokeColor=#82b366;strokeWidth=2;" vertex="1" parent="1">
          <mxGeometry x="460" y="240" width="100" height="80" as="geometry" />
        </mxCell>
      </root>
    </mxGraphModel>
  </diagram>
</mxfile>
